<svg id="svg-source" height="0" version="1.1"
  xmlns="http://www.w3.org/2000/svg" style="position:absolute; margin-left: -100%"
  xmlns:xlink="http://www.w3.org/1999/xlink">
<g id="phone-2" data-iconmelon="Line icon set:4026c32f593d8509666e11c2e8bf539a">
  <g id="Phone_x5F_2">
    <g>
      <path fill="rgb(155,195,255)" d="M30.989,2.602L30.09,1.704c-1.109-1.107-2.711-1.692-4.631-1.692c-4.745,0-11.097,3.398-16.58,8.871
    C0.916,16.831-2.244,26.13,1.686,30.052l0.899,0.899c0.671,0.668,1.563,1.037,2.512,1.037s1.841-0.369,2.513-1.038l3.597-3.591
    c1.384-1.381,1.386-3.63,0-5.014l-0.899-0.897c-0.958-0.958-0.518-3.444,3.597-7.551c3.504-3.496,5.532-4.019,6.43-4.019
    c0.475,0,0.845,0.141,1.134,0.43l0.899,0.897c1.341,1.339,3.684,1.341,5.025,0l3.595-3.59c0.673-0.669,1.042-1.56,1.042-2.507
    S31.661,3.271,30.989,2.602z M29.561,6.19l-3.597,3.59c-0.58,0.578-1.589,0.58-2.168,0l-0.899-0.897
    c-0.668-0.667-1.553-1.02-2.562-1.02c-2.149,0-4.792,1.551-7.858,4.609c-6.325,6.312-4.622,9.376-3.597,10.4l0.899,0.897
    c0.598,0.597,0.598,1.567,0,2.164l-3.596,3.589c-0.582,0.579-1.591,0.578-2.17,0.001l-0.898-0.897
    c-3.025-3.02,0.269-11.408,7.193-18.318c5.041-5.031,10.988-8.281,15.152-8.281c1.393,0,2.47,0.37,3.203,1.102l0.898,0.897
    c0.29,0.29,0.45,0.675,0.45,1.083C30.011,5.517,29.851,5.9,29.561,6.19z"></path>
    </g>
  </g>
</g>

<g id="mail-1">
  <g id="Mail_x5F_1">
    <g>
      <path fill="rgb(155,195,255)" d="M31.121,0.879C30.554,0.312,29.801,0,29,0H3C2.199,0,1.446,0.312,0.879,0.879C0.312,1.444,0,2.198,0,3v26
    c0,0.204,0.021,0.404,0.061,0.6c0.008,0.037,0.023,0.069,0.032,0.105c0.037,0.156,0.08,0.312,0.143,0.46
    c0.007,0.015,0.016,0.026,0.022,0.041c0.147,0.336,0.354,0.647,0.621,0.916c0.129,0.129,0.271,0.24,0.417,0.342
    c0.01,0.008,0.019,0.017,0.028,0.023c0.139,0.094,0.287,0.17,0.439,0.238c0.024,0.012,0.047,0.028,0.072,0.039
    c0.144,0.061,0.294,0.102,0.446,0.139c0.04,0.011,0.077,0.028,0.118,0.036C2.596,31.979,2.796,32,3,32h26
    c0.204,0,0.404-0.021,0.6-0.061c0.041-0.008,0.078-0.025,0.119-0.036c0.151-0.037,0.302-0.078,0.445-0.139
    c0.026-0.011,0.05-0.028,0.076-0.041c0.15-0.068,0.298-0.143,0.436-0.236c0.01-0.007,0.019-0.016,0.028-0.023
    c0.146-0.102,0.288-0.213,0.417-0.342c0.266-0.266,0.47-0.575,0.618-0.909c0.007-0.017,0.019-0.031,0.025-0.048
    c0.062-0.147,0.104-0.303,0.143-0.459c0.009-0.036,0.024-0.069,0.032-0.106C31.979,29.404,32,29.204,32,29V3
    C32,2.198,31.688,1.444,31.121,0.879z M2,6.242L11.758,16L2,25.76V6.242z M29.922,29.387c-0.05,0.118-0.121,0.227-0.215,0.319
    c-0.094,0.095-0.203,0.166-0.321,0.216S29.137,30,29,30H3c-0.137,0-0.268-0.028-0.386-0.078s-0.228-0.121-0.321-0.216
    c-0.094-0.093-0.165-0.201-0.215-0.319S2,29.137,2,29c0-0.266,0.103-0.516,0.289-0.701l10.883-10.885l0.707,0.707
    C14.445,18.688,15.199,19,16,19s1.555-0.312,2.121-0.879l0.707-0.707l10.883,10.885C29.897,28.484,30,28.734,30,29
    C30,29.137,29.972,29.269,29.922,29.387z M30,25.758L20.242,16L30,6.24V25.758z M29.711,3.701L16.707,16.707
    c-0.379,0.378-1.035,0.378-1.414,0L2.289,3.701C2.103,3.516,2,3.266,2,3c0-0.268,0.104-0.519,0.293-0.706C2.482,2.104,2.733,2,3,2
    h26c0.267,0,0.518,0.104,0.707,0.294C29.896,2.481,30,2.732,30,3C30,3.266,29.897,3.516,29.711,3.701z"></path>
    </g>
  </g>
</g>

<g id="twitter1" data-iconmelon="Jolly Icons:5f754e3e509aab10a161a5a6251f89c4">
  <g>
    <path fill="rgb(155,195,255)" fill-rule="evenodd" clip-rule="evenodd" d="M20.236,9.845c0.222,0.184,0.387,0.423,0.707,0.506
  c0.137,0.301,0.429,0.446,0.809,0.504c0.063-0.204,0.471-0.065,0.504-0.302c0.236-0.032,0.227-0.312,0.404-0.404
  c-0.025-0.749-0.176-1.372-0.505-1.816C21.122,7.756,19.872,8.385,20.236,9.845z"></path>
    <path fill="rgb(155,195,255)" fill-rule="evenodd" clip-rule="evenodd" d="M30.027,7.322c-0.504,0-1.009,0-1.514,0c0.192-0.48,0.465-0.881,0.707-1.312
  c0.074-0.597,0.346-0.999,0.303-1.716c0.176-0.227,0.239-0.567,0.402-0.808c0.142-0.196,0.331-0.649,0.102-0.908
  c-0.069-0.301-0.401-0.338-0.807-0.303c-0.12,0.05-0.23,0.107-0.303,0.202c-0.609,0.59-1.061,1.38-1.717,1.917
  c-0.012,0.012-0.084,0-0.102,0c-0.117,0.007-0.043,0.064-0.101,0.102c-0.199,0.132-0.351,0.207-0.503,0.303
  c-0.388,0.24-0.745,0.606-1.213,0.706c-0.721-0.288-1.576-0.443-2.523-0.504c-1.575,0.14-3.137,0.294-4.138,1.009
  c-1.24,0.477-2.011,1.42-2.927,2.221c-0.068,0.437-0.467,0.543-0.504,1.01c-0.007,0.062-0.017,0.119-0.102,0.101
  c0.059,0.327-0.068,0.469-0.101,0.706c-0.001,0.182,0.271,0.588,0,0.707c-1.12-0.162-2.023-0.857-2.928-1.312
  c-0.978-0.49-1.999-0.822-2.825-1.514C8.262,7.489,7.521,6.816,6.814,6.111c-0.283-0.425-0.738-0.675-0.91-1.212
  C5.389,4.676,5.666,3.657,4.896,3.688c-0.43-0.059-0.47,0.272-0.605,0.505C4.195,4.502,3.799,4.51,3.785,4.899
  C3.779,4.962,3.771,5.02,3.685,5.001c-0.231,1.483-0.719,2.714-0.706,4.44c0.175,0.565,0.475,1.006,0.807,1.413
  c-0.569,0.069-0.975,0.303-1.211,0.707c-0.082,1.462,0.514,2.244,1.01,3.128c0.183,0.524,0.479,0.934,0.808,1.312
  c0.023,0.312,0.28,0.393,0.403,0.605c0.024,0.144,0.166,0.17,0.202,0.304c-0.055,0.145,0.394,0.246,0.101,0.302
  c-0.562,0.178-1.385,0.096-1.716,0.506c-0.149,0.379-0.149,1.134,0,1.514c0.046,0.323,0.384,0.355,0.403,0.705
  c0.68,0.567,1.473,1.019,2.222,1.516c0.782,0.226,1.649,0.367,2.522,0.504c-0.139,0.467-0.46,0.751-0.807,1.01
  c-1.062,0.519-2.519,0.645-3.736,1.009c-0.756,0.052-1.301,0.313-2.118,0.304c-0.452,0.173-1.163,0.102-1.515,0.303
  c-0.166,0.094-0.138,0.131-0.303,0.302c-0.182,0.56,0.151,1.007,0.605,1.211c-0.007,0.344,0.297,0.377,0.506,0.505
  c0.12,0.25,0.345,0.395,0.604,0.505c0.742,0.637,1.727,1.033,2.625,1.515c1.129,0.249,2.245,0.513,3.432,0.706
  c1.22,0.159,2.589,0.169,3.835,0.302c0.438,0,0.875,0,1.312,0c0.696,0.18,1.677,0.074,2.522,0.102
  c0.131-0.139,0.439-0.1,0.707-0.102c0.711-0.365,1.629-0.523,2.221-1.008c0.783-0.328,1.348-0.874,2.12-1.211
  c1.18-1.042,2.638-1.804,3.431-3.23c0.279-0.259,0.479-0.599,0.607-1.01c0.359-0.212,0.523-0.619,0.806-0.908
  c0.551-0.559,0.963-1.259,1.413-1.918c0.436-0.676,0.785-1.436,1.212-2.119c-0.013-0.552,0.416-0.66,0.403-1.211
  c0.264-0.309,0.241-0.902,0.506-1.212c-0.046-0.347,0.039-0.565,0.101-0.808c0.063-1.745-0.065-3.299-0.405-4.642
  c0.801-0.211,1.609-0.411,2.222-0.808c0.718-0.252,1.361-0.793,1.11-1.716C31.637,7.328,30.707,7.45,30.027,7.322z M27.303,13.378
  c-0.209,1.171-0.839,1.921-1.414,2.726c0.08,0.516-0.142,0.732-0.1,1.211c-0.216,0.424-0.391,0.889-0.506,1.413
  c-0.276,0.362-0.452,0.825-0.705,1.21c-0.5,0.747-1.06,1.432-1.615,2.121c-0.516,0.764-1.243,1.313-1.818,2.018
  c-0.572,0.672-1.283,1.206-1.916,1.817c-0.645,0.23-1.211,0.54-1.716,0.908c-0.316,0.122-0.63,0.245-0.908,0.404
  c-0.241,0.197-0.681,0.195-0.909,0.403c-1.48,0.201-3.134,0.23-4.844,0.201c-1.404-0.143-2.881-0.215-4.139-0.505
  c-1.258-0.257-2.059-0.97-3.129-1.412c0.208-0.329,0.864-0.212,1.312-0.303c0.042-0.227,0.535-0.003,0.604-0.202
  c0.352,0.081,0.389-0.15,0.708-0.101c0.768-0.274,1.676-0.411,2.321-0.808c0.385-0.188,0.553-0.59,0.908-0.807
  c0.045-0.258,0.141-0.465,0.303-0.606c0.064-0.374,0.273-0.601,0.202-1.11c0.151-0.285,0.407-0.466,0.403-0.908
  c-0.102-0.201-0.175-0.432-0.403-0.505c-0.036-0.267-0.515-0.091-0.605-0.302c-0.347,0.043-0.566-0.041-0.808-0.102
  c-0.209-0.06-0.663,0.125-0.706-0.102C6.677,20.008,6.053,19.454,5.3,19.03c0.586-0.355,1.405-0.479,1.815-1.009
  c0.703-0.105,1.441-0.177,1.515-0.909c0-0.975-1.05-0.9-1.815-1.11c-1.054-0.898-1.627-2.276-2.423-3.432
  c0.324-0.214,0.769-0.307,1.009-0.605c0.617,0.08,0.735-0.342,0.908-0.706c0.025-0.665-0.453-0.825-0.809-1.11
  C5.148,9.861,4.854,9.518,4.593,9.14c-0.004-1.114-0.029-2.25,0.101-3.23C4.779,5.891,4.789,5.948,4.795,6.01
  c0.308,0.602,0.761,1.055,1.109,1.615c0.725,0.486,1.261,1.162,2.12,1.515c0.616,0.562,1.509,0.846,2.12,1.413
  c0.818,0.358,1.578,0.775,2.32,1.211c0.912,0.266,1.438,0.916,2.727,0.807c0.271-0.132,0.536-0.271,0.807-0.404
  c0.352-0.62-0.079-1.469,0.201-2.22c0.348-0.897,1.086-1.405,1.716-2.019c0.395-0.211,0.755-0.457,1.11-0.707
  c0.473-0.133,0.918-0.293,1.312-0.504c0.512-0.027,0.971-0.105,1.414-0.201c0.57,0,1.143,0,1.715,0
  c0.333,0.07,0.646,0.162,1.01,0.201c0.283,0.187,0.517,0.426,0.907,0.504c1.075,0.945,1.729,2.311,1.919,4.139
  C27.135,12.02,27.373,12.551,27.303,13.378z M27.705,5.707c-0.175,0.464-0.314,0.963-0.807,1.11
  c-0.024-0.144-0.166-0.17-0.201-0.302C26.681,6.23,26.982,6.262,27.1,6.111C27.322,5.996,27.435,5.773,27.705,5.707
  C27.696,5.586,27.853,5.645,27.705,5.707z"></path>
  </g>
</g>
  <g id="facebook" data-iconmelon="Jolly Icons:6d630f767a8f5641c9d0ad14befcf2f5">
    <path fill="rgb(155,195,255)" fill-rule="evenodd" clip-rule="evenodd" d="M24.114,1.737c-0.033-0.233-0.311-0.226-0.345-0.46
	c-0.31-0.189-0.509-0.487-0.806-0.689c-0.811-0.188-1.607-0.387-2.415-0.576c-0.946,0.051-2.112-0.118-2.877,0.115
	C14.75,0.08,13.213,1.42,11.806,2.889c-0.027,0.089-0.004,0.227-0.117,0.229c-0.641,1.833-0.139,4.18-0.229,6.442
	c0.109,0.504,0.119,1.107,0.229,1.61c-1.114,0.343-2.468,0.446-3.795,0.576c-0.354,0.374-0.199,1.258-0.23,1.956
	c0.096,0.672,0.311,1.223,0.461,1.84c0.234,0.223,0.664,0.458,0.92,0.576c0.072,0.033,0.08,0.095,0.115,0.113
	c0.562,0.31,1.619,0.01,2.529,0.116c-0.152,2.283,0.285,4.519,0,6.557c0.008,0.378,0.328,0.44,0.23,0.921
	c0,1.111-0.074,2.299,0.232,3.105c-0.32,0.525-0.555,1.135-0.463,2.072c0.136,0.018,0.127,0.182,0.117,0.344
	c-0.084,0.544,0.717,0.203,0.574,0.807c0.182,0.526-0.477,0.212-0.461,0.574v1.036c0.592,0.329,1.631,0.21,2.531,0.229
	c1.013-0.483,2.439-0.552,3.107-1.381c0.512,0.271,1.02-0.016,1.38-0.229c-0.019-0.364,0.306-0.385,0.229-0.806
	c-0.004-0.379-0.193-0.572-0.115-1.035v-3.336c-0.229-2.646-0.052-5.7-0.344-8.284c0.99-0.121,2.139-0.086,2.876-0.46
	c0.398-0.52,0.421-1.42,0.575-2.186c0.197-0.262,0.246-0.674,0.23-1.15c0.213-0.246,0.076-0.843,0.115-1.265
	c-0.156-0.688-0.188-1.501-0.921-1.61c-0.985-0.272-2.28,0.687-3.337,0.344c0.055-1.31-0.327-2.703,0-3.91
	c0.832-0.205,1.613-0.458,2.416-0.691c1.146,0.034,2.225,0,2.991-0.345c0.436-0.944,0.62-2.142,0.69-3.451
	C24.132,2.182,24.274,1.809,24.114,1.737z M22.274,4.154h-1.726c-1.218,0.277-2.216,0.775-3.337,1.15
	c-0.268,0.076-0.309,0.382-0.574,0.46c-0.041,0.458-0.252,0.746-0.347,1.149c-0.088,1.661,0.149,2.998,0.115,4.603
	c0.131,0.293,0.283,0.562,0.461,0.806c0.089,0.025,0.226,0.002,0.229,0.115c1.33,0.064,2.453-0.08,3.452-0.346
	c0.001,1.152-0.302,2.001-0.576,2.877c-0.738,0.052-1.636,0.346-2.185,0.229c-0.309,0.19-0.414,0.583-0.691,0.805
	c-0.055,0.51,0.158,0.571,0,0.92c-0.225,0.158-0.062,0.706-0.229,0.921v1.727c0.095,0.324-0.162,0.297-0.114,0.574v4.026
	c-0.096,0.325,0.162,0.298,0.114,0.576v3.451c0.071,0.312-0.146,0.912,0.114,1.034c-0.078,0.421-0.459-0.023-0.92,0.115
	c-0.59,0.141-1.032,0.427-1.727,0.461c0.131-0.406,0.357-0.717,0.347-1.266c0.054-0.439-0.407-0.36-0.575-0.575
	c0.215-0.743,0.627-1.29,0.805-2.07c0.221-0.594,0.797-1.498,0.345-2.071c-0.583-0.121-0.581,0.34-0.921,0.461
	c-0.025,0.089-0.002,0.227-0.114,0.229c-0.026,0.089-0.003,0.227-0.114,0.23c0.012,0.139-0.168,0.07,0,0
	c0.024-0.091,0.002-0.228,0.114-0.23c0.026-0.09,0.003-0.228,0.114-0.229v-0.346c0.411-0.664,0.748-1.401,0.921-2.301
	c0.214-0.323,0.316-0.758,0.46-1.151c0.175-0.302,0.379-1.003,0.116-1.38c-0.576,0.039-0.887,0.342-1.036,0.805
	c-0.357-0.219,0.18-0.5,0.115-0.805c0.154-0.267,0.189-0.652,0.345-0.92c0.226-0.477,0.63-1.504,0-1.841
	c-0.487-0.027-0.683,0.239-0.806,0.574c-0.238,0.222-0.479,0.441-0.575,0.806c-0.417-0.081-0.159-0.839-0.229-1.266
	c-0.075-0.6,0.137-1.039,0-1.38c-0.625-0.923-2.26-0.122-3.566-0.345c-0.121-0.354-0.248-1.137-0.115-1.381
	c1.165-0.102,2.764,0.232,3.566-0.23c0.026-0.09,0.003-0.227,0.115-0.229c0.104-0.835-0.303-1.154-0.574-1.611
	c0.258-0.931,0.045-2.332,0.114-3.451c0.261-0.161,0.366-0.478,0.575-0.69c0.125-1.102,0.75-1.703,0.805-2.876
	c-0.305,0.001-0.678-0.063-0.69,0.23c-0.337-0.133-0.426,0.552-0.574,0.229c-0.126-0.624,0.274-0.723,0.345-1.15
	c0.668-0.482,1.352-0.947,2.07-1.38c1.943-0.282,5.184-0.519,6.789,0.229C22.562,3.138,22.185,3.412,22.274,4.154z"></path>
  </g>

  <g id="tools" data-iconmelon="Jolly Icons:1d43806c4ee777f661fc854d3e5c7cc4">
    <path fill="rgb(255,255,255)" fill-rule="evenodd" clip-rule="evenodd" d="M26.104,23.572c0.701,0.093,1.138,0.029,1.78,0.28
  c0.707,0.885,0.541,2.642,1.217,3.559c0.883,0.15,1.905,0.075,2.528-0.468c0.623-1.592,0.105-3.969,0.094-5.806
  c-0.145-0.355-0.271-0.728-0.375-1.125c-0.194-0.053-0.267-0.231-0.561-0.188c-0.221-0.028-0.174-0.324-0.469-0.28
  c-0.584-0.728-1.327-1.295-2.061-1.873c-1.67-0.076-3.114-0.382-4.962-0.28c-0.423-0.079-0.468,0.218-0.75,0.28
  c-0.166-0.459-0.733-0.516-0.937-0.936c0.444-0.088,0.604-0.459,0.937-0.657c0.398-0.694,1.019-1.167,1.404-1.872
  c0.67-0.455,1.031-1.218,1.687-1.686c0.119,0.128,0.441,0.128,0.562,0c0.484-0.359,0.799-0.888,1.217-1.312
  c0.473-0.214,0.826-0.546,1.123-0.937c0.076-0.48-0.099-0.71-0.187-1.03c0.397-0.29,0.831-0.542,1.123-0.936
  c0.37-0.319,0.86-0.515,1.124-0.937c0.05-0.262,0.139-0.487,0.188-0.75c-0.503-1.558-1.43-2.691-2.154-4.027
  c-0.376-0.34-0.769-0.667-1.217-0.937h-1.124c-1.056,0.629-1.884,1.487-2.528,2.529c-0.026,0.337,0.173,0.452,0.186,0.749
  C23.456,4.681,23.346,4.041,22.64,4c-0.577,0.048-0.792,0.456-1.219,0.655c-0.176,0.385-0.467,0.656-0.561,1.124
  c-0.462,0.163-0.656,0.593-0.937,0.937c-0.49,0.134-0.618,0.631-1.03,0.843c-0.174,0.451-0.608,0.641-0.842,1.029
  c-0.359,0.265-0.683,0.566-1.03,0.844c-0.393,0.418-0.634,0.99-1.217,1.217c-0.196-0.273-0.375-0.562-0.657-0.75
  c-0.15-0.35-0.582-0.416-0.656-0.843c0.315-1.383-0.191-2.737-0.28-4.027c-0.534-0.558-0.934-1.25-1.498-1.779
  c-0.2-0.363-0.442-0.683-0.749-0.937C11.83,1.886,11.39,1.763,11.401,1.19c-0.509-0.145-0.872-0.439-1.404-0.562
  C9.514,0.425,8.873,0.379,8.498,0.066c-0.65,0.124-1.075,0.084-1.685,0c-0.04-0.159-0.121,0.021-0.28,0
  C5.978,0.137,5.548,0.331,5.221,0.628c0.026,0.337-0.173,0.452-0.187,0.75c0.71,0.788,2.084,0.912,2.622,1.873
  c0.52,0.698,0.804,1.63,1.124,2.528C7.914,6.63,7.262,7.694,6.157,8.308c-0.536,0.149-1.039,0.334-1.779,0.28
  C3.86,8.294,3.455,7.889,3.16,7.372C2.701,7.019,2.362,6.546,2.13,5.967C2.092,5.567,2.221,5.001,2.037,4.749
  C1.539,4.508,0.9,4.782,0.445,4.655c-0.72,1.544-0.261,3.952,0.094,5.525c0.187,0.188,0.478,0.27,0.656,0.469
  c0.886,1.422,1.976,2.642,3.277,3.652c0.772,0.007,1.395,0.165,2.154,0.187c1.115-0.133,2.262-0.235,3.559-0.187
  c1.079,1.013,2.156,2.027,3.09,3.184c-0.591,0.127-0.798,0.639-1.311,0.844c-0.716,0.907-1.676,1.57-2.436,2.434
  c-0.404,0.002-0.345,0.467-0.749,0.468c-0.129,0.276-0.433,0.379-0.562,0.656c-0.321,0.381-1.167,0.683-0.843,1.404
  c0.397,0.306,0.583-0.248,0.936-0.28c0.231-0.269,0.484-0.515,0.842-0.656c0.232-0.268,0.485-0.515,0.843-0.656
  c0.206-0.294,0.483-0.516,0.843-0.656c0.48-0.486,0.991-0.943,1.499-1.404c0.488-0.512,1.171-0.826,1.591-1.405
  c0.232,0.112,0.366,0.321,0.469,0.562c0.187,0.155,0.436,0.251,0.468,0.562c-0.137-0.138-0.613-0.138-0.748,0
  c-1.019,0.73-1.891,1.607-2.811,2.435c-0.496,0.378-0.932,0.816-1.405,1.218c-0.179,0.257-0.398,0.477-0.656,0.655
  c-0.206,0.23-0.26,0.613-0.654,0.655c-0.482-0.178-0.802,0.058-1.406,0c0.098-0.488,0.121-0.848-0.186-1.123
  c-0.635-0.146-1.397-0.164-1.967-0.374c0.884-1.27,2.042-2.267,3.184-3.278c0.663-0.429,1.182-1.003,1.779-1.498
  c0.194-0.338,0.556-0.505,0.749-0.843c0.379-0.183,0.793-0.331,0.749-0.937c-0.004-0.12-0.119-0.13-0.094-0.281
  c-0.31-0.294-1.101-0.239-1.216,0.188c-0.306,0.101-0.538,0.354-0.75,0.562c-0.366,0.357-0.805,0.978-1.124,1.216
  c-0.086,0.065-0.206,0.03-0.28,0.094c-0.24,0.208-0.392,0.581-0.75,0.655c-1.168,1.235-2.394,2.413-3.372,3.839
  C3.626,25.255,2.375,27,1.944,29.565c-0.353,0.62-1.162,1.175-0.563,2.06c0.073,0.021,0.185,0.002,0.186,0.093
  c0.759,0.134,0.846-0.405,1.312-0.562c2.335-0.661,4.438-1.554,6.461-2.529c0.338-0.037,0.627-0.121,0.936-0.187
  c0.151-0.224,0.309-0.441,0.281-0.843c1.062-0.874,1.859-2.011,2.997-2.81c0.461-0.507,1.153-0.782,1.592-1.311
  c0.496-0.473,1.311-0.625,1.218-1.687c-0.125-0.093-0.282-0.153-0.375-0.28c-0.932,0.035-1.172,0.763-1.778,1.124
  c-0.259,0.239-0.561,0.438-0.842,0.655c-0.326,0.174-0.435,0.565-0.844,0.656c-0.461,0.539-0.958,1.037-1.498,1.498
  c-0.205,0.295-0.493,0.506-0.655,0.843c-0.401,0.099-0.322,0.675-0.843,0.656c-0.353-0.333-0.122-1.252-0.187-1.873
  c1.825-1.578,3.499-3.306,5.431-4.776c0.052-0.135,0.145-0.228,0.282-0.281c0.051-0.136-0.11-0.484,0.093-0.468
  c0.72,0.903,1.536,1.711,2.154,2.716c-0.022,0.49,0.227,0.708,0.28,1.124c0.057,0.84,0.12,1.306,0.095,2.341
  c0.072,0.677,0.334,1.164,0.375,1.873c0.844,0.873,1.626,1.808,2.621,2.528c-0.017,0.329,0.317,0.308,0.376,0.562
  c0.155,0.188,0.25,0.436,0.561,0.469c1.298,0.171,2.183,0.752,3.559,0.843c0.342-0.001,0.42-0.266,0.655-0.375
  c0.275-0.069,0.403-0.285,0.562-0.468c-0.027-0.379-0.161-0.651-0.187-1.03c-0.385-0.52-0.902-0.908-1.499-1.217
  c-0.156-0.312-0.62-0.317-0.75-0.656c-0.372-0.096-0.699-0.236-0.842-0.562c0.029-0.591-0.014-1.109-0.093-1.593
  c0.425-0.386,0.86-0.762,1.404-1.029C24.967,24.517,25.381,23.85,26.104,23.572z M6.719,28.441
  c-0.361,0.326-0.979,0.395-1.405,0.656c-0.365-0.009-0.37-0.378-0.562-0.562c-0.188-0.156-0.435-0.251-0.469-0.562
  c-0.265-0.141-0.398-0.413-0.749-0.468c0.32-1.335,0.759-2.55,1.03-3.933c0.472,0.152,0.726,0.522,1.404,0.467
  c-0.009,0.384-0.018,0.768,0.094,1.031c0.188,0.562,1.172,0.326,1.873,0.374c0.07,1.044-0.286,1.549,0.188,2.248
  C7.767,28.053,7.232,28.236,6.719,28.441z M27.041,7.09c0.062-0.499-0.055-0.819-0.375-0.937c0.015-0.109,0.171-0.079,0.28-0.094
  c0.286-0.151,0.405-0.47,0.75-0.562c-0.026-0.152,0.089-0.161,0.094-0.281c0.184,0.186,0.535,0.06,0.749,0
  c0.291,0.458,0.561,0.938,0.75,1.499c-0.633,0.459-1.211,0.974-1.781,1.498c-0.368-0.226-0.567-0.618-0.935-0.842
  C26.657,7.207,26.9,7.199,27.041,7.09z M22.358,5.217h0.282c0.683,0.908,1.689,1.495,2.341,2.435
  c0.384,0.208,0.645,0.541,1.029,0.749c0.374,0.564,0.955,0.919,1.218,1.592c-0.551,0.23-0.746,0.816-1.312,1.031
  c-1.363-1.51-2.918-2.825-4.401-4.214C21.673,6.155,22.025,5.696,22.358,5.217z M17.581,10.461c0.767-0.638,1.515-1.296,2.154-2.06
  c0.319-0.119,0.355-0.519,0.75-0.562c0.053-0.135,0.146-0.229,0.281-0.281c1.289,1.302,2.463,2.719,3.839,3.934
  c-0.034,0.309-0.281,0.405-0.468,0.562c-0.033,0.31-0.281,0.406-0.469,0.562c-0.24,0.447-0.597,0.777-0.937,1.124
  c-0.498,0.875-1.258,1.488-1.685,2.435c-0.33-0.107-0.344-0.531-0.656-0.655c-0.12-0.318-0.52-0.355-0.563-0.75
  c0.457-0.137,0.599-0.586,1.031-0.749c0.281-0.375,0.539-0.772,0.938-1.031c0.214-0.439,0.752-0.558,0.935-1.029
  c0.015-0.233-0.146-0.29-0.187-0.468c-0.748-0.073-1.134,0.398-1.498,0.748c-0.38,0.365-0.678,0.827-1.125,1.124
  c-0.149,0.35-0.583,0.417-0.655,0.843c-0.542-0.115-0.594-0.717-1.031-0.937c0.76-0.676,1.523-1.349,2.34-1.967
  c0.223-0.34,0.46-0.665,0.75-0.936c0.074-0.456,0.633-0.428,0.469-1.124c-0.093-0.126-0.251-0.187-0.376-0.28
  c-0.278-0.016-0.827,0.182-0.843,0.468c-0.009,0.204-0.508,0.546-0.56,0.842c-0.394,0.388-0.879,0.682-1.217,1.124
  c-0.415,0.336-0.81,0.689-1.031,1.218c-0.453-0.422-0.98-0.767-1.217-1.405C16.874,10.939,17.215,10.688,17.581,10.461z
   M8.125,1.939C8.075,1.891,8.192,1.82,8.218,1.846C8.266,1.895,8.149,1.965,8.125,1.939z M14.679,16.455
  c-0.309-0.054-0.135-0.354-0.095-0.561C14.792,15.904,14.625,16.29,14.679,16.455C14.792,16.445,14.737,16.591,14.679,16.455z
   M24.325,22.823c0.027-0.185-0.126-0.187-0.188-0.282c-0.422,0.079-0.247,0.753-0.281,1.218c-0.213,0.161-0.473,0.276-0.656,0.468
  c-0.232-0.236-0.075-0.861-0.468-0.937c-0.497,0.096,0.167,1.353-0.468,1.311c0.006-0.412-0.006-0.805-0.281-0.936
  c-0.319-0.007-0.278,0.347-0.282,0.655v0.937c-0.067,0.286,0.162,0.275,0.095,0.562c0.04,0.322-0.039,0.525-0.095,0.749
  c-0.002,0.221,0.162,0.276,0.095,0.562c0.3,0.76,0.798,1.323,1.217,1.967c0.361,0.168,0.554,0.507,0.935,0.655
  c0.085,0.166,0.346,0.155,0.376,0.375c0.222,0.059,0.435,0.126,0.468,0.375h-0.937c-0.087-0.381-0.261-0.677-0.562-0.843
  c-0.479,0.048-0.158,0.86-0.281,1.029c-0.838-0.129-0.624-1.312-1.124-1.778c-0.384,0.165-0.219,0.517-0.188,0.936
  c-0.482-0.081-0.397-0.726-0.654-1.03c-0.062-0.531-0.272-0.915-0.47-1.312c-0.309,0.033-0.146,0.539-0.186,0.844
  c-0.325-0.082-0.206-0.607-0.469-0.75c-0.151-1.13-0.369-2.19-0.562-3.278v-0.748c0.069-0.287-0.161-0.276-0.093-0.562
  c-0.062-0.343,0.202-0.36,0.188-0.656c-0.066-1.276-0.439-2.246-0.469-3.559c-0.151-0.223-0.07-0.679-0.374-0.749
  c-0.462-0.025-0.286,0.588-0.469,0.842v1.499c-0.329-0.139-0.404-0.531-0.655-0.749c-0.025-0.475-0.16-0.839-0.281-1.217
  c-0.137-0.394-0.125-0.938-0.469-1.124c-0.454,0.015-0.368,0.568-0.374,1.03c-0.619-0.631-0.604-1.894-0.936-2.81
  c-0.064-0.562,0.045-1.294-0.375-1.498c-0.592,0.126-0.394,1.043-0.47,1.684c-0.255-0.336-0.366-0.817-0.466-1.31
  c-0.263-0.361-0.201-1.049-0.469-1.405c-0.432-0.088-0.18,0.507-0.375,0.656c-0.07,0.601,0.108,0.951,0.094,1.498
  c-0.474-0.017-0.435-0.737-0.562-0.843c-0.026-0.021,0.013-0.154,0-0.188c-0.11-0.292-0.202-0.619-0.282-0.842v-0.562
  c-0.109-0.141-0.116-0.383-0.281-0.469c-0.831-0.187-0.563,1.052-0.469,1.499c-0.445,0.008-0.318-0.556-0.468-0.843
  c-0.211-0.225-0.219-0.655-0.749-0.561c-0.391,0.125-0.113,0.743,0.094,0.842c-0.062,0.281-0.199-0.089-0.375,0H9.622
  c-0.158-0.248-0.574-0.238-0.843-0.375c-0.147-0.57-0.241-1.195-0.562-1.592c-0.768-0.019-0.366,1.132-0.468,1.779H6.813
  c-0.26-0.52-0.195-1.365-0.656-1.686c-0.424-0.05-0.218,0.531-0.374,0.75c-0.022,0.409,0.238,0.887,0.094,1.124
  c-0.407,0.094-0.418-0.207-0.562-0.375c-0.078-0.235-0.256-0.368-0.281-0.656c-0.28-0.375-0.342-0.969-0.656-1.311
  c-0.553,0.183-0.211,0.742-0.281,1.311c-0.741-0.694-1.016-1.854-1.217-3.09C2.716,9.049,2.589,9.077,2.505,9.15
  c0.103,0.45-0.289,0.891,0,1.217c-0.241,0.265-0.405-0.339-0.656-0.375c-0.015-0.11,0.016-0.265-0.094-0.281
  c0.027-0.901-0.144-1.604-0.281-2.34c0.53,0.499,0.966,1.094,1.405,1.685C3.365,9.383,3.72,9.84,4.472,9.899
  c-0.074,0.324,0.104,0.396,0.187,0.562c0.265,0.078,0.243-0.132,0.469-0.093c-0.017,0.234,0.144,0.293,0.28,0.375
  c0.306,0.025,0.451-0.11,0.469-0.375c0.206,0.199,0.232,0.579,0.656,0.562c0.72-0.222,0.097-1.014,0.187-1.686
  c0.367-0.085,0.068,0.494,0.282,0.563c0.078,0.201,0.23,0.331,0.561,0.28c0.311-0.034,0.148-0.54,0.188-0.843
  c-0.047-0.328-0.14-0.609-0.094-1.03C7.385,8.162,7.8,8.067,7.75,7.933c0.186-0.001,0.118-0.255,0.375-0.188
  C8.102,8.266,8.147,8.722,8.498,8.869C9.564,8.727,8.282,7.38,8.874,6.902c0.302-0.083,0.13,0.306,0.28,0.375
  C9.18,7.47,9.404,7.464,9.528,7.559c0.535,0.006,0.358-0.662,0.281-1.03c-0.047-0.391,0.273-0.413,0.187-0.843
  C9.896,5.162,9.704,4.731,9.435,4.375c-0.017-0.393,0.46-0.29,0.375-0.75c-0.09-0.94-0.956-1.104-1.499-1.592
  c0.08-0.275,0.235,0.122,0.468,0C8.858,2.172,9.08,2.168,9.247,2.22c0.447,0.072,0.416-0.334,0.844-0.281
  c0.08,0.139,0.301,0.136,0.468,0.188c0.323,0.926,0.938,1.559,1.405,2.341c0.335,0.352,0.567,0.805,1.123,0.937
  c0.015,1.235,0.12,2.378,0.188,3.559c0.253,0.526,0.575,0.986,1.03,1.31c0.042,0.334,0.339,0.411,0.468,0.656
  c0.201,0.206,0.292,0.521,0.561,0.655c0.245,0.536,0.639,0.922,0.938,1.404c0.244,0.537,0.692,0.87,1.03,1.312
  c0.819,0.742,1.616,1.506,2.434,2.247c0.429,0.353,0.751,0.811,1.218,1.124c0.349,0.433,0.729,0.832,1.217,1.124
  c1.158,0.002,2.022-0.287,3.185-0.281c0.646,0.221,1.648,0.393,2.34,0.281c0.439,0.152,0.638,0.549,1.031,0.749
  c0.224,0.369,0.617,0.569,0.843,0.937c0.306,0.006,0.357,0.266,0.749,0.187c0.009,0.241,0.054,0.447,0.187,0.562
  c-0.005,0.754,0.075,1.423,0.188,2.06c0.029,0.944-0.056,1.692,0,2.435c-0.235,0.108-0.314,0.373-0.656,0.374
  c-0.266-0.857-0.789-1.458-0.936-2.434c-0.022-0.134-0.154-0.158-0.187-0.281c-0.147-0.228-0.398-0.35-0.75-0.374
  c0.03-0.218-0.015-0.36-0.094-0.469c-0.884-0.176-1.727-0.572-2.715-0.375c-0.329,0.265-0.662,0.525-0.844,0.938
  C24.394,23.065,24.321,22.983,24.325,22.823z"></path>
  </g>
  <g id="cloud1" data-iconmelon="Jolly Icons:de54190eb49e7a330a0729b375462ff2">
    <g>
      <path fill="rgb(255,255,255)" fill-rule="evenodd" clip-rule="evenodd" d="M21.323,6.845c-0.004,0.123,0.042,0.195,0.089,0.266
    c0.484-0.019,1.067,0.061,1.42-0.089C22.758,6.571,21.658,6.748,21.323,6.845z"></path>
      <path fill="rgb(255,255,255)" fill-rule="evenodd" clip-rule="evenodd" d="M17.948,11.107c-0.549,0.25-0.879,0.718-1.332,1.066
    c-0.221,0.524-0.815,1.031-0.532,1.776c0.198,0.128,0.428,0.223,0.799,0.178c0.418-0.352,0.552-0.988,0.799-1.51
    c0.279-0.521,0.736-0.863,0.799-1.599c-0.168,0.02-0.195-0.1-0.355-0.089C18.125,11.047,17.97,11.011,17.948,11.107z"></path>
      <path fill="rgb(255,255,255)" fill-rule="evenodd" clip-rule="evenodd" d="M28.872,15.459c-0.51-0.258-1.192-0.306-1.866-0.178
    c0.498-1.16,1.044-2.271,1.244-3.73V8.888c-0.142-0.924-0.471-1.66-0.799-2.398c-0.459-0.547-0.996-1.019-1.51-1.509
    c-0.694-0.283-1.339-0.616-2.22-0.711H21.5c-0.148,0.149-0.521,0.071-0.799,0.089c-0.834,0.23-1.65,0.481-2.398,0.8
    c-0.644,0.451-1.275,0.916-1.865,1.421c-0.19,0.372-0.565,0.56-0.71,0.976c-0.403,0.189-0.408,0.777-0.799,0.978
    c-0.154-0.499-0.739-0.564-1.154-0.799c-3.513-0.326-6.186,0.905-7.992,2.575c-0.086,0.358-0.345,0.544-0.533,0.799
    c-0.035,0.321-0.119,0.592-0.267,0.8v2.131c0.103,0.105,0.101,0.314,0.089,0.533c0.156,0.228,0.065,0.704,0.266,0.888
    c-0.073,0.251,0.125,0.23,0.089,0.444c-0.012,0.118,0.299,0.331,0.089,0.355c-0.584-0.022-1.121,0.004-1.599,0.089
    c-2.153,1.162-3.356,3.274-3.907,6.039c-0.04,0.721,0.038,1.323,0.088,1.953c0.145,0.152,0.269,0.323,0.267,0.622
    c0.982,1.445,2.513,2.342,4.795,2.486c0.678,0.027,1.288-0.014,1.865-0.088c0.477,0.115,1.01,0.173,1.509,0.266
    c5.104,0.274,10.181-0.073,15.273-0.089c0.94-0.333,2.333-0.213,3.464-0.355c0.017-0.131,0.215-0.082,0.355-0.089
    c0.058-0.119,0.189-0.166,0.355-0.177c0.106-0.22,0.304-0.348,0.532-0.444c0.505,0.06,0.729-0.16,1.155-0.178
    c0.516-0.401,1.018-0.816,1.421-1.332c0.429-0.725,0.734-1.575,0.887-2.575c0.077-1.824-0.045-3.447-0.621-4.618
    C30.666,16.862,30.013,15.917,28.872,15.459z M7.736,16.436c-0.079,0.055-0.159,0.107-0.178,0
    C7.581,16.324,7.736,16.346,7.736,16.436z M29.404,21.586c-0.199,0.246-0.346,0.542-0.444,0.888
    c-0.22,0.254-0.406,0.542-0.533,0.888c-0.515,0.402-0.733,1.102-1.421,1.332c0.172-0.216,0.085-0.743,0-0.977
    c-0.068-0.02-0.175-0.003-0.177-0.089c-0.966-0.018-1.268,0.627-1.333,1.51h-1.42c-0.197-0.194,0.087-0.362,0-0.71
    c-0.175-0.654-0.162-1.496-0.622-1.865c-1.239,0.063-1.743,0.862-2.309,1.598c-0.034,0.508,0.007,0.939,0.355,1.066
    c-0.123,0.202-0.618,0.033-0.888,0.088c0.059-0.297,0.276-0.435,0.356-0.71c-0.374-0.262-0.613,0.238-0.8,0.444H20.08
    c0.005,0.122-0.042,0.195-0.088,0.266c-0.139-0.023-0.062-0.195,0-0.266h0.088c0.258-0.63,0.648-1.128,0.977-1.688
    c0.273-0.508,0.973-1.024,0.622-1.865c-1.04,0.027-1.172,0.959-1.866,1.333c-0.53,0.564-1.044,1.146-1.509,1.776
    c-0.074,0.222-0.117,0.476-0.089,0.8c-2.312,0.232-4.894,0.197-7.281,0.355c0.018-0.446,0.289-0.839,0.088-1.243
    c-0.07-0.021-0.176-0.003-0.178-0.089c-0.881,0.096-1.158,0.795-1.51,1.42H8.713c0.141-0.598,0.399-1.08,0.621-1.598
    c-0.036-0.198,0.049-0.427,0-0.622c-0.057-0.228-0.102-0.23-0.267-0.354c-0.924,0.2-1.176,1.073-1.775,1.598
    c-0.076,0.339-0.264,0.565-0.356,0.888c-0.329,0.063-0.38-0.152-0.709-0.089c0.041-0.885,0.905-1.392,0.709-2.22
    c0-0.117-0.155-0.081-0.177-0.177c-0.654,0.026-1.001,0.361-1.333,0.71c-0.236-0.271,0.233-0.593,0.089-1.065
    c-0.105-0.043-0.201-0.095-0.266-0.178c-1.101,0.203-1.625,0.98-2.043,1.865C2.908,24.3,3.33,23.963,3.295,23.628
    c0.223-0.221,0.252-0.636,0.445-0.888c0.25-0.609,0.645-1.072,0.977-1.598c-0.049-0.366-0.33-0.498-0.799-0.444
    c-0.688,0.229-1.045,0.79-1.421,1.332c-0.197-0.145,0.125-0.521,0.178-0.71c0.149-0.235,0.206-0.564,0.355-0.799
    c0.237-0.532,0.689-0.85,0.888-1.421c-0.437-0.172-0.878,0.345-1.154,0.622c-0.17-0.063,0.018-0.507,0.178-0.533
    c-0.023-0.318,0.265-0.325,0.265-0.622c0.779-0.732,1.561-1.459,2.843-1.687c0.327-0.002,0.392,0.258,0.533,0.444
    c0.153-0.004,0.228,0.069,0.266,0.178c0.055,0.124,0.342,0.013,0.356,0.177c0.345-0.069,0.499-0.33,0.799-0.443
    c0.07-0.404,0.125-0.822,0.266-1.155c-0.024-0.359-0.282-0.487-0.177-0.977c0.106-0.485,0.426-0.757,0.533-1.243
    c-0.025-0.392-0.47,0.048-0.533-0.178c-0.035-0.538,0.379-0.627,0.622-0.888c0.171-0.362,0.611-0.454,0.71-0.888
    c-0.005-0.351-0.182-0.529-0.533-0.533c0.185-0.318,0.438-0.57,0.622-0.888c1.311-0.497,3.918-1.196,5.151-0.178
    c-0.02,1.056-0.146,2.218,0.798,2.309c0.429-0.016,0.584-0.304,0.623-0.71c0.104,0.074,0.238,0.117,0.443,0.088
    c0.493-0.159,0.668-0.634,0.889-1.066c0.174-0.506,0.572-0.79,0.799-1.243c0.384-0.266,0.626-0.676,1.066-0.888
    c0.233-0.447,1.015-0.346,1.065-0.977c0.024-0.41-0.292-0.479-0.534-0.622c-0.66-0.069-0.893,0.291-1.332,0.444
    c-0.504,0.354-0.942,0.773-1.42,1.154c0.01,0.107-0.129,0.055,0,0c-0.022-0.318,0.267-0.325,0.267-0.621
    c0.29-0.035,0.275-0.376,0.443-0.533c0.463-0.278,0.835-0.646,1.421-0.799c0.146-0.21,0.521-0.189,0.71-0.355
    c0.279-0.105,0.67-0.1,0.889-0.266c0.115,0.122,0.385,0.088,0.622,0.089c0.207-0.029,0.366-0.107,0.533-0.178h1.598
    c0.898,0.107,1.495,0.519,2.043,0.977c0.369,0.549,0.64,1.195,0.799,1.953v1.776c-0.164,1.82-0.945,3.021-1.51,4.44v0.711
    c0,0.089,0.072,0.105,0.088,0.177c0.025,0.183,0.239,0.177,0.356,0.266c0.33-0.094,0.287,0.187,0.444,0.267
    c0.251-0.045,0.377-0.215,0.621-0.267h1.42c0.076,0.132,0.287,0.129,0.445,0.178c0.037,0.111,0.115,0.182,0.266,0.178
    c0.173,0.42,0.516,0.668,0.711,1.065c0.214,0.378,0.356,0.827,0.533,1.243c0.014,0.105-0.015,0.252,0.089,0.267
    C29.707,20.114,29.514,20.809,29.404,21.586z"></path>
    </g>
  </g>
  <g id="globe" data-iconmelon="Jolly Icons:dacc3269fe38f3ad3a4aa07ada39fa99">
    <path fill="rgb(255,255,255)" fill-rule="evenodd" clip-rule="evenodd" d="M30.422,7.435c-0.203-0.22-0.381-0.466-0.544-0.727
  c-0.158-0.296-0.454-0.454-0.546-0.817c-0.461-0.386-0.885-0.81-1.271-1.271c-0.466-0.412-1.003-0.753-1.453-1.181
  c-0.429-0.418-0.917-0.779-1.362-1.18c-0.475-0.403-0.881-0.875-1.453-1.181c-0.65-0.106-1.115-0.399-1.816-0.454
  c-0.727-0.031-1.267-0.247-2.088-0.182c-1.322-0.082-3.203-0.189-4.542-0.091c-0.055,0.004-0.106,0.014-0.09,0.091
  c-0.06,0-0.121,0-0.182,0c-1.174-0.084-1.957,0.223-2.906,0.363c-0.058,0.184-0.424,0.06-0.454,0.272
  c-0.288-0.015-0.304,0.242-0.636,0.182C9.92,1.917,8.821,2.633,7.72,3.348C6.53,3.975,5.671,4.932,4.723,5.8
  C4.348,6.425,3.852,6.927,3.542,7.616C3.459,8.048,3,8.103,2.906,8.524C2.591,8.724,2.518,9.165,2.18,9.341
  C2.06,9.706,1.823,9.954,1.634,10.25c-0.157,0.357-0.324,0.705-0.543,1c-0.093,0.422-0.272,0.757-0.455,1.089
  c0.044,0.287-0.165,0.321-0.091,0.636c-0.24,0.032-0.082,0.462-0.272,0.544C0.214,14.338,0.102,15.104,0,15.88
  c0.149,1.001,0.035,2.265,0.273,3.178c0.056,1.094,0.392,1.908,0.544,2.906c0.418,0.612,0.667,1.391,1.09,1.997
  c0.093,0.421,0.321,0.708,0.545,1c0.105,0.136,0.113,0.371,0.272,0.454c0.156,0.117,0.247,0.299,0.272,0.545
  c2.441,2.553,5.419,4.57,9.626,5.358c4.486,0.912,9.596,0.039,12.715-1.544c0.436-0.381,0.948-0.685,1.452-0.999
  c0.495-0.505,0.886-1.112,1.453-1.544c0.17-0.467,0.518-0.754,0.727-1.181c0.285-0.382,0.455-0.878,0.818-1.181
  c-0.014-0.225,0.046-0.376,0.182-0.454c0.05-0.162,0.046-0.377,0.181-0.455c0.114-0.31,0.195-0.652,0.364-0.907
  c0.191-0.655,0.404-1.291,0.636-1.908c0.354-1.37,0.653-2.797,0.817-4.358c0.169-3.621-0.308-6.595-1.362-8.991
  C30.481,7.738,30.435,7.604,30.422,7.435z M16.256,16.606c-2.053-0.036-4.264,0.086-6.176-0.091
  c-0.213-2.015,0.068-4.28,0.273-6.175c1.758,0.239,3.662,0.334,5.54,0.454C15.948,12.798,16.092,14.711,16.256,16.606z
   M12.351,2.803c0.558-0.229,1.315-0.258,1.816-0.544c0.336-0.058,0.905,0.118,1.09-0.091c0.03,0,0.061,0,0.09,0
  c0.061,0,0.122,0,0.182,0c-0.248,2.271,0.109,4.492,0.182,6.721c-1.625-0.161-3.447-0.126-4.996-0.363
  C11.072,6.428,11.677,4.581,12.351,2.803z M7.356,6.345C7.542,6.187,7.534,6.413,7.72,6.254c0.115-0.309,0.322-0.525,0.453-0.817
  c0.331-0.275,0.718-0.493,0.909-0.908c0.671-0.327,1.069-0.928,1.815-1.18c-0.603,1.545-1.215,3.083-1.543,4.904
  c-1.11-0.07-1.762-0.6-2.815-0.727C6.706,7.026,7.199,6.854,7.356,6.345z M3.088,12.429c0.25-0.356,0.479-0.732,0.545-1.271
  c0.416-0.25,0.516-0.815,0.817-1.18c0.308-0.358,0.565-0.766,0.907-1.09c0.032-0.12,0.161-0.144,0.182-0.272
  c1.032,0.572,2.14,1.069,3.36,1.453c-0.335,1.965-0.505,4.096-0.544,6.357c-2.117-0.062-4.138-0.222-5.812-0.727
  C2.464,14.348,2.924,13.537,3.088,12.429z M5.631,24.598c-0.189-0.174-0.378-0.348-0.454-0.636
  c-0.438-0.289-0.561-0.893-0.909-1.271c-0.449-1.005-0.905-2.001-1.271-3.088c-0.054-0.236,0.036-0.327,0.273-0.272
  c-0.265-0.613-0.709-1.047-0.727-1.907c1.776,0.463,3.949,0.531,5.903,0.817c0.034,2.146,0.499,3.86,0.817,5.721
  c-0.988,0.405-2.062,0.723-2.997,1.181C5.933,25.083,5.814,24.808,5.631,24.598z M9.354,27.776
  c-0.241-0.183-0.509-0.338-0.817-0.454c-0.166-0.258-0.5-0.348-0.727-0.545c-0.188-0.235-0.531-0.316-0.636-0.636
  c0.413-0.072,0.84-0.128,1.181-0.272c0.346-0.137,0.812-0.156,1.089-0.363c0.105-0.015,0.161,0.02,0.182,0.09
  c0.179,0.881,0.513,1.606,0.636,2.543C9.977,28.001,9.717,27.837,9.354,27.776z M10.08,18.241c2.021,0.099,4.132,0.106,6.267,0.091
  c0.06,1.362,0.217,2.628,0.272,3.996c-0.959,0.191-2.034,0.267-2.997,0.453c-0.356,0.22-1.007,0.145-1.363,0.363
  c-0.594-0.019-0.839,0.312-1.453,0.273C10.597,21.66,10.163,20.127,10.08,18.241z M15.075,28.866
  c-0.339,0.098-0.259-0.226-0.545-0.182c-0.304,0-0.605,0-0.908,0c-0.513-0.15-0.93-0.133-1.363-0.182
  c-0.142-0.25-0.252-0.534-0.363-0.817c-0.096-0.267-0.125-0.602-0.272-0.817c0-0.363-0.181-0.545-0.181-0.908
  c-0.157-0.207-0.086-0.64-0.273-0.817c0.254-0.351,0.848-0.363,1.363-0.454c0.418-0.187,1.083-0.127,1.543-0.272
  c0.793,0.067,1.305-0.148,2.089-0.091c0.146,0.026,0.156-0.086,0.271-0.091c0.062,0,0.122,0,0.182,0
  c0.367-0.004,0.076,0.65,0.272,0.818c-0.045,0.408,0.045,0.681,0.091,0.999c0,0.394,0,0.787,0,1.181
  c0.069,0.536,0.169,1.042,0.272,1.544C16.656,28.934,15.809,28.844,15.075,28.866z M16.892,2.621
  c0.793,0.054,1.807-0.111,2.452,0.091c0.575,0.15,0.632,0.821,1.089,1.089c0.218,0.51,0.62,0.834,0.817,1.362
  c0.457,0.996,0.966,1.94,1.182,3.179c-1.475,0.402-3.111,0.643-5.086,0.545C17.158,6.835,16.942,4.811,16.892,2.621z M22.432,25.143
  c-0.053,0.433-0.274,0.696-0.273,1.181c-0.35,0.588-0.398,1.478-0.816,1.998c-0.773,0.256-1.879,0.181-2.633,0.455
  c-0.162-1.136-0.315-2.998-0.273-4.632c1.457,0.035,2.819-0.026,4.177-0.091C22.751,24.304,22.468,24.779,22.432,25.143z
   M23.066,22.056c-1.631,0.004-3.207,0.062-4.723,0.181c-0.248-1.205-0.292-2.613-0.362-3.996c1.769-0.169,3.477-0.397,5.084-0.727
  c0.062,0,0.122,0,0.182,0C23.243,19.084,23.311,20.725,23.066,22.056z M23.248,16.062c-1.815,0.152-3.56,0.375-5.449,0.454
  c-0.04-1.988-0.237-3.818-0.363-5.721c1.984,0.077,3.719-0.095,5.176-0.545c0.106,0.015,0.162-0.02,0.183-0.091
  c0.077-0.017,0.085,0.036,0.09,0.091C23.197,11.995,23.274,13.978,23.248,16.062z M22.976,5.164
  c-0.065-0.141-0.168-0.286-0.273-0.454c-0.084-0.135-0.166-0.271-0.271-0.454c-0.04-0.066-0.04-0.195-0.092-0.272
  c0.021,0.029-0.599-0.492-0.272-0.454c0.948,0.445,1.711,1.073,2.724,1.453c0.436,0.625,1.223,0.896,1.634,1.544
  c-0.263,0.342-0.772,0.438-1.088,0.727c-0.533,0.073-0.787,0.424-1.363,0.454C23.759,6.777,23.342,5.958,22.976,5.164z
   M24.973,26.323c-0.225-0.014-0.28,0.144-0.453,0.182c-0.19,0.113-0.341,0.264-0.454,0.454c-0.211-0.277,0.162-0.743,0.181-1.089
  c0.095-0.39,0.166-0.804,0.273-1.181c-0.025-0.146,0.086-0.156,0.092-0.272c0.603,0.093,0.949,0.442,1.453,0.636
  C25.842,25.618,25.32,25.884,24.973,26.323z M29.151,17.605c-0.033,0.271-0.145,0.461-0.272,0.636
  c-0.163,2.047-0.823,3.598-1.543,5.085c-0.863-0.257-1.558-0.683-2.363-0.999c0.217-1.867-0.042-3.59,0.092-4.813
  c1.553-0.021,2.656-0.492,3.724-0.999c0.163,0.012,0.19-0.111,0.363-0.091C29.151,16.818,29.151,17.212,29.151,17.605z M26.79,15.88
  c-0.604,0-1.21,0-1.817,0c0.069-2.308-0.197-4.283-0.453-6.266c1.062-0.452,2.127-0.9,2.997-1.544
  c0.074,0.017,0.091,0.091,0.182,0.091c0.277,1.085,0.762,1.963,0.999,3.088c0.225,1.107,0.44,2.224,0.454,3.541
  C28.407,15.196,27.554,15.494,26.79,15.88z"></path>
  </g>

  <g id="smartphone" data-iconmelon="Jolly Icons:b481e941dbca66ef22509654f1dbfa97">
    <path fill="rgb(255,255,255)" fill-rule="evenodd" clip-rule="evenodd" d="M6.702,18.703c-0.136,1.189-0.09,2.54-0.09,3.864c0,1.344-0.073,2.676,0.09,3.863
  c-0.029,0.96-0.005,1.857,0.18,2.515c0.145,0.154,0.271,0.328,0.269,0.629c0.425,0.383,0.716,0.902,1.259,1.167
  c0.518,0.32,1.08,0.598,1.707,0.809c0.07,0.02,0.177,0.003,0.18,0.09c1.75,0.077,3.433,0.221,5.121,0.359
  c1.757-0.069,3.396-0.256,5.301-0.18c0.102-0.197,0.593-0.006,0.628-0.27c0.315,0.017,0.296-0.303,0.539-0.359
  c0.28-0.32,0.935-0.263,1.348-0.45c0.361-0.717,1.124-1.032,1.526-1.707c0.512-2.414,0.272-5.568,0.451-8.086
  c0.117-2.817,0.257-5.613,0.358-8.446c-0.125-2.269-0.103-4.688-0.269-6.917c-0.006-0.725,0.272-1.166,0.179-1.976
  c-0.145-0.455-0.223-0.976-0.359-1.438c-0.417-0.662-0.933-1.223-1.617-1.618c-0.642-0.166-1.403-0.214-2.246-0.179
  c-0.392,0.122-0.531-0.057-0.899,0.089c-0.155-0.264-0.923,0.085-1.078-0.179c-1.604-0.072-2.999-0.355-4.762-0.271
  c-0.019,0.071-0.075,0.105-0.179,0.09c-1.06-0.012-2.104-0.007-2.964,0.18c-1.139-0.061-2.126,0.03-2.875,0.359
  c-0.02,0.069-0.076,0.104-0.18,0.089C8.043,1.118,7.488,1.222,7.42,1.812C7.073,2.155,6.898,2.668,6.702,3.161
  c0.05,2.559-0.27,5.152-0.27,7.727C6.432,13.529,6.561,16.131,6.702,18.703z M10.834,26.071c-0.16-0.066-0.013-0.164,0-0.27
  C10.994,25.867,10.847,25.964,10.834,26.071z M11.374,27.867c-0.208-0.271,0.199-0.695,0.268-0.988
  c0.163,0.011,0.19-0.11,0.361-0.09C11.847,27.203,11.455,27.38,11.374,27.867z M12.452,29.754c-0.041-0.08-0.079-0.161-0.18-0.18
  c-0.064-0.519,0.523-0.809,0.808-0.449C13.08,29.545,12.871,29.754,12.452,29.754z M12.812,26.879c0.001-0.087,0.11-0.07,0.179-0.09
  C12.988,26.877,12.88,26.859,12.812,26.879z M12.542,26.25c-0.251,0.079-0.444,0.214-0.719,0.27
  c-0.095-0.835,0.934-0.641,1.527-0.539C13.238,26.228,12.864,26.214,12.542,26.25z M14.877,29.754
  c-0.258-0.191-0.447-0.452-0.809-0.54c-0.055-0.244-0.178-0.42-0.359-0.539v-1.438c0.406-0.761,1.464-0.872,2.246-1.257
  c0.313,0.107,0.648,0.191,0.899,0.359c0.28,0.618,0.577,1.219,0.628,2.066C17.292,29.569,16.227,30.007,14.877,29.754z
   M20.357,27.957c-0.151-0.443,0.124-1.321,0.719-0.988C20.985,27.446,20.886,27.916,20.357,27.957z M22.334,26.609V26.43
  c0.077,0.016,0.085-0.036,0.09-0.09C22.598,26.304,22.555,26.75,22.334,26.609z M9.396,9.27c0.022-0.488,0.214-0.805,0.27-1.258
  c-0.039-0.52,0.038-0.92,0.089-1.348C9.734,5.653,9.73,4.663,10.026,3.969c1.132-0.126,2.311-0.205,3.504-0.27
  c1.096-0.161,2.451-0.062,3.683-0.089c0.154,0.019,0.232-0.154,0.27,0c1.327-0.146,3.256-0.152,4.582,0
  c0.306,0.674,0.18,1.613,0.18,2.515V8.82c0.01,1.756,0.25,3.285,0.45,4.852c-0.436,2.769-0.458,5.952-0.45,9.164
  c-0.26,0.369-0.643,0.616-0.899,0.989c-1.897,0.049-3.998-0.105-5.75,0.09c-1.027-0.069-1.778,0.137-2.784,0.09
  c-0.38,0.1-0.855,0.103-1.349,0.089c-0.504,0.025-0.967,0.01-1.167-0.269c-0.301-0.028-0.358-0.301-0.449-0.539
  c-0.158-0.172-0.191-0.469-0.27-0.719c-0.205-1.088-0.036-2.186-0.09-3.325c-0.003-0.073-0.101-0.089-0.09-0.18
  c0.021-0.159,0.014-0.108,0-0.449C9.275,15.661,9.487,12.436,9.396,9.27z M9.218,30.114c0.188-0.039,0.237,0.061,0.359,0.089
  c0.095,0.335-0.189,0.29-0.27,0.45C9.061,30.651,9.093,30.229,9.218,30.114z M7.69,27.957C7.582,27.967,7.635,27.827,7.69,27.957
  c0.156-0.007,0.279,0.021,0.359,0.09C8.025,28.259,7.714,28.039,7.69,27.957z M7.69,26.071c0.046,0.046-0.065,0.115-0.091,0.089
  C7.553,26.114,7.664,26.046,7.69,26.071z M7.42,26.43c0.208,0.271,0.032,0.926,0.09,1.347C6.894,27.68,7.231,26.746,7.42,26.43z"></path>
  </g>
</svg>
